# xmcd
#
# Track frame offsets:
#	150
#	23765
#	39525
#	57242
#	73017
#	100885
#	125192
#	149762
#	167814
#	189350
#	205162
#	223228
#	243460
#
# Disc length: 3900 seconds
# Revision: 0
# Processed by: cddbd v1.5.2PL0 Copyright (c) Steve Scherf et al.
# Submitted via: dBpowerAMP V12.0
#
DISCID=cc0f3a0d
DTITLE=The Mollys - Only A Story
DYEAR=1900
DGENRE=
TTITLE0=Don't Come On Strong And Run
TTITLE1=The Man In Question
TTITLE2=I'm Not As Willing
TTITLE3=The Powers Brothers
TTITLE4=My Manda
TTITLE5=Don't Want To Outlive That Man Too Long
TTITLE6=Only A Story
TTITLE7=Time To Burn
TTITLE8=Will You Forgive Me
TTITLE9=Strike Me Down
TTITLE10=Yer Drunk Again - Polka Del Diablo 
TTITLE11=Come On With Me
TTITLE12=Youngest Daughter
EXTD=
EXTT0=
EXTT1=
EXTT2=
EXTT3=
EXTT4=
EXTT5=
EXTT6=
EXTT7=
EXTT8=
EXTT9=
EXTT10=
EXTT11=
EXTT12=
PLAYORDER=
